PathFileType	4	(X/Y/Z)	./resultDataOpenSim/trcMotMarkerGrf/sub06/qtm-12-07.trc
DataRate	CameraRate	NumFrames	NumMarkers	Units	OrigDataRate	OrigDataStartFrame	OrigNumFrames
250.000000	250.000000	10	24	m	250.000000	252	502
Frame#	Time	L.Toe.Tip			R.Toe.Tip			L.Ankle.Lat			R.Ankle.Lat			L.Ankle.Med			R.Ankle.Med			L.Heel			R.Heel			L.Knee.Lat			R.Knee.Lat			L.Knee.Med			R.Knee.Med			L.Thigh.Upper			R.Thigh.Upper			L.ASIS			R.ASIS			V.Sacral			L.Acromium			R.Acromium			C7			L.Elbow			R.Elbow			L.Wrist.Lat			R.Wrist.Lat
		X1	Y1	Z1	X2	Y2	Z2	X3	Y3	Z3	X4	Y4	Z4	X5	Y5	Z5	X6	Y6	Z6	X7	Y7	Z7	X8	Y8	Z8	X9	Y9	Z9	X10	Y10	Z10	X11	Y11	Z11	X12	Y12	Z12	X13	Y13	Z13	X14	Y14	Z14	X15	Y15	Z15	X16	Y16	Z16	X17	Y17	Z17	X18	Y18	Z18	X19	Y19	Z19	X20	Y20	Z20	X21	Y21	Z21	X22	Y22	Z22	X23	Y23	Z23	X24	Y24	Z24

252	1.004	0.023215095	0.0094285094	-0.059695405	0.68851269	0.13036144	0.12943578	-0.087707549	0.072213495	-0.081196676	0.55379083	0.09741817	0.14308412	-0.078299708	0.08748167	0.0047209583	0.56957786	0.13035395	0.058738825	-0.16281832	0.065070874	-0.03153338	0.52084105	0.056363627	0.077743428	0.068529286	0.41112415	-0.10276331	0.42938885	0.46646441	0.14641536	0.064517354	0.41418334	0.018993077	0.4113275	0.43532553	0.01683783	0.16521047	0.7825139	-0.16661312	0.23260501	0.77944235	0.17817252	0.25663905	0.82336367	-0.13822533	0.30486151	0.83288479	0.10576006	0.099633115	0.90626635	0.020621921	0.25903638	1.3154497	-0.18171618	0.23969363	1.2956939	0.18031265	0.17434799	1.3472763	-0.0056048361	0.25267788	0.99047048	-0.26592598	0.065886413	1.0356912	0.22759934	0.49810899	0.93908505	-0.22490682	0.085137492	0.80535803	0.29200199
253	1.008	0.023262228	0.0094269326	-0.059737559	0.69729009	0.13073983	0.12871901	-0.08671211	0.073158368	-0.081369209	0.56271821	0.096699249	0.1413525	-0.077287809	0.088393043	0.0046116125	0.57882144	0.13003398	0.057098784	-0.1619924	0.066955288	-0.031692785	0.53055778	0.055446867	0.07564817	0.073370376	0.41048285	-0.10290529	0.43697874	0.4650901	0.1457432	0.06952026	0.41329701	0.018929903	0.41881898	0.43444883	0.015872465	0.17108137	0.78137246	-0.16605665	0.24102612	0.77790349	0.17851859	0.26248726	0.82221518	-0.13815555	0.31241068	0.83149183	0.10566662	0.10711517	0.90494017	0.023007742	0.26509008	1.3140605	-0.18142559	0.24627334	1.2942388	0.18080044	0.18084741	1.3459678	-0.0052484181	0.26114071	0.98871202	-0.26500722	0.072261406	1.0345636	0.22808539	0.50636963	0.93994657	-0.22405057	0.089799754	0.80435959	0.29294054
254	1.012	0.023316588	0.0094179408	-0.059763189	0.70550913	0.13061973	0.12799123	-0.085680598	0.074179944	-0.081526129	0.57104129	0.095774541	0.13951408	-0.076209301	0.089345014	0.0044826147	0.58751365	0.1294967	0.05541265	-0.16108503	0.068933623	-0.031834893	0.53959996	0.05442673	0.073397128	0.078223644	0.4098437	-0.10301086	0.4445358	0.46379158	0.14507761	0.074671493	0.41241627	0.018876931	0.42636459	0.4338695	0.014889559	0.17704583	0.78023764	-0.16550181	0.24963367	0.77648537	0.17894823	0.26852027	0.82105802	-0.13812216	0.31999212	0.8301216	0.10554955	0.11470002	0.90362424	0.025153622	0.27114939	1.3126812	-0.18112133	0.25289917	1.2928022	0.18132751	0.18736541	1.3446986	-0.004814467	0.26871988	0.98709321	-0.26473545	0.078780476	1.0334147	0.2286386	0.51455066	0.94070162	-0.22320439	0.094712659	0.80334819	0.29388356
255	1.016	0.023379429	0.009404237	-0.059777962	0.71318759	0.13001788	0.12719111	-0.08461074	0.075275737	-0.081690345	0.57873349	0.094667558	0.13759385	-0.075058921	0.090348943	0.004331331	0.59564837	0.12871783	0.053658679	-0.16010429	0.07099697	-0.031986716	0.54796911	0.053289046	0.071032044	0.083031359	0.40919885	-0.10306067	0.45200053	0.4625564	0.14436905	0.079980219	0.41155032	0.018834371	0.43393096	0.43352953	0.013929	0.18310679	0.77911339	-0.16495777	0.25817185	0.77513639	0.17934623	0.27477957	0.81989797	-0.13814203	0.32760128	0.82877322	0.10539504	0.12209775	0.90240575	0.026647724	0.27722204	1.3113199	-0.18079757	0.2595712	1.2913934	0.18189363	0.19385639	1.3434651	-0.0042367774	0.27605301	0.9855173	-0.26463	0.085430401	1.0322563	0.22925432	0.52264976	0.94135632	-0.22237603	0.099864906	0.80233426	0.29483149
256	1.02	0.023452788	0.0093907158	-0.059789848	0.72033212	0.1289674	0.12624365	-0.083479846	0.076441345	-0.081881658	0.58573083	0.093436012	0.13562263	-0.073814701	0.091429062	0.004163821	0.60320601	0.12769038	0.051821361	-0.15906059	0.073148856	-0.032156867	0.55566545	0.052018495	0.068609388	0.087878569	0.4085476	-0.10310441	0.45934807	0.46137209	0.14358714	0.085447263	0.4107039	0.018788787	0.44150165	0.43337554	0.013040453	0.18926546	0.77799888	-0.1644254	0.26649238	0.7738421	0.17965286	0.28120311	0.81874798	-0.13819491	0.33523897	0.82744423	0.10519473	0.12912675	0.9013181	0.027589156	0.2833238	1.3099866	-0.18044523	0.26629556	1.2900166	0.18249232	0.20030731	1.3422643	-0.0034947159	0.28346509	0.98396511	-0.26439748	0.092160047	1.0311026	0.22990889	0.53066244	0.94191084	-0.2215744	0.10523051	0.80132226	0.29578737
257	1.024	0.023540395	0.0093813849	-0.059802616	0.72695483	0.12749728	0.12509424	-0.082266453	0.077673138	-0.082102043	0.59198376	0.092137701	0.13363117	-0.072434982	0.092610999	0.0039865418	0.61015842	0.12642039	0.049911721	-0.15795316	0.075399128	-0.032354394	0.56268469	0.050606386	0.066189432	0.092862311	0.40789529	-0.10320128	0.46659177	0.46022488	0.14273876	0.091069288	0.40987329	0.018725351	0.44908088	0.43337131	0.012254864	0.19552415	0.77689405	-0.16390184	0.27467537	0.77265443	0.17992425	0.28772103	0.81761823	-0.13826217	0.34291323	0.82613553	0.10494921	0.13579206	0.90034746	0.02819308	0.28946546	1.3086902	-0.18005669	0.27307771	1.2886738	0.18311422	0.2067551	1.3410966	-0.0026374583	0.29100489	0.98245042	-0.26393201	0.098936066	1.0299586	0.23057804	0.53858757	0.94235846	-0.2207923	0.11080295	0.80031459	0.29675257
258	1.028	0.02364583	0.0093783817	-0.059816883	0.73307724	0.1256244	0.1237166	-0.080960056	0.078966333	-0.082343184	0.59757641	0.090740663	0.13163045	-0.070879262	0.093909558	0.0038027662	0.61649168	0.1249179	0.047952513	-0.15676652	0.077758227	-0.032593915	0.56901934	0.049049342	0.063823926	0.098016498	0.40724771	-0.10338317	0.47376858	0.45909981	0.14185755	0.096839775	0.40904769	0.018637024	0.4566834	0.43349848	0.011583657	0.2018858	0.77580368	-0.16338835	0.28286102	0.77163283	0.18023771	0.29430297	0.81651435	-0.13833649	0.35063189	0.82485314	0.10466514	0.14221768	0.89944741	0.028649286	0.29564647	1.3074375	-0.17962844	0.27991971	1.287371	0.18375639	0.21327359	1.3399557	-0.0017732552	0.29862346	0.98098708	-0.26322178	0.10576911	1.0288212	0.23125877	0.54642585	0.94269263	-0.22001127	0.11658743	0.79931386	0.29772143
259	1.032	0.023767914	0.0093799101	-0.05983219	0.73872092	0.12336683	0.12209301	-0.079548562	0.080318263	-0.082610047	0.60271935	0.089122305	0.12961047	-0.069158694	0.095308118	0.0035993595	0.62223368	0.12318783	0.045960568	-0.15547415	0.080232529	-0.032884774	0.57467193	0.047340699	0.061548633	0.10334137	0.40660687	-0.10364767	0.48091597	0.45798335	0.14098149	0.10274251	0.40821615	0.018530241	0.46432263	0.43374792	0.011028051	0.20835326	0.77473054	-0.16289088	0.29107417	0.77077577	0.18059671	0.30095354	0.81543855	-0.13841098	0.35840056	0.82360723	0.10435338	0.1486518	0.89855523	0.029094475	0.30186267	1.306234	-0.17915874	0.28681952	1.2861161	0.18442355	0.21992734	1.3388244	-0.0010054414	0.30626731	0.97957184	-0.26230208	0.11268796	1.0276911	0.23196177	0.55417634	0.94291406	-0.21922446	0.12258433	0.79832272	0.29868607
260	1.036	0.023900087	0.0093814145	-0.059848614	0.74390651	0.12075238	0.12020744	-0.078014921	0.08173201	-0.082924228	0.60756669	0.087199128	0.12757032	-0.067346715	0.096757783	0.0033427259	0.6274457	0.1212297	0.043945241	-0.15404298	0.082823364	-0.033226217	0.57966632	0.045468347	0.059382808	0.1088415	0.40596808	-0.10395959	0.48806266	0.45687249	0.14014116	0.10874929	0.40736826	0.018434086	0.47199561	0.43410025	0.010577768	0.21492992	0.77366995	-0.16241031	0.29922273	0.77001903	0.18093432	0.30768776	0.81438896	-0.13847703	0.36622127	0.82240833	0.10402802	0.15560979	0.89758563	0.029605914	0.30811516	1.3050844	-0.17864408	0.29377358	1.2849141	0.18511916	0.22671973	1.3376913	-0.00034928623	0.31389107	0.978193	-0.26125565	0.11970973	1.0265768	0.23269268	0.56183649	0.94302906	-0.21844189	0.12878644	0.79734445	0.29964463
261	1.04	0.024036001	0.0093802189	-0.059867319	0.7486574	0.11781513	0.11805912	-0.076356377	0.083213668	-0.083297367	0.61214556	0.084980856	0.1255255	-0.065516683	0.098208396	0.0029993091	0.63217744	0.11904068	0.04192338	-0.15244753	0.085529812	-0.033613861	0.58404464	0.043424661	0.057337622	0.11452527	0.40531907	-0.10427406	0.49523302	0.45578043	0.13935321	0.11482841	0.40648576	0.018401756	0.47967879	0.43451127	0.010204806	0.22161648	0.77261652	-0.16194056	0.3071982	0.76929192	0.18117402	0.31451047	0.81336154	-0.13853008	0.37409407	0.82126693	0.10370701	0.16381642	0.89643657	0.030221849	0.31441012	1.3039933	-0.17807921	0.30078054	1.2837675	0.18584006	0.23359863	1.336561	0.00026555122	0.32144203	0.97685859	-0.26019807	0.12683609	1.0254879	0.23344781	0.56940465	0.94304303	-0.21767554	0.13518883	0.79638195	0.30060148
